<svg xmlns="http://www.w3.org/2000/svg" viewBox="0 0 180 180" fill="none" role="img" aria-label="Bold">
  <defs>
    <linearGradient id="bold-apple-grad" x1="20" y1="20" x2="160" y2="160" gradientUnits="userSpaceOnUse">
      <stop stop-color="#2563EB"/>
      <stop offset="1" stop-color="#1E3A8A"/>
    </linearGradient>
  </defs>
  <rect width="180" height="180" rx="40" fill="url(#bold-apple-grad)"/>
  <path fill="#fff" d="M54 45h44c16 0 25.5 8 25.5 20.5 0 8.5-4.5 14.5-12.5 18 9.5 2.5 15.5 10 15.5 21.5 0 15-11.5 25-30.5 25H54V45zm18 28h24c6 0 9.5-3.5 9.5-8.5S102 56 96 56H72v17zm0 33h27c7 0 11.5-4 11.5-10.5S106 85 99 85H72v21z"/>
  <circle cx="130" cy="130" r="13" fill="#93C5FD"/>
  <circle cx="130" cy="130" r="6.5" fill="#2563EB"/>
</svg>
