<svg xmlns="http://www.w3.org/2000/svg" viewBox="0 0 1200 630" fill="none" role="img" aria-label="Bold  Meet Better">
  <defs>
    <linearGradient id="og-bg" x1="0" y1="0" x2="1200" y2="630" gradientUnits="userSpaceOnUse">
      <stop stop-color="#0F172A"/>
      <stop offset="1" stop-color="#1E3A8A"/>
    </linearGradient>
    <linearGradient id="og-icon" x1="80" y1="80" x2="200" y2="200" gradientUnits="userSpaceOnUse">
      <stop stop-color="#2563EB"/>
      <stop offset="1" stop-color="#3B82F6"/>
    </linearGradient>
  </defs>
  <rect width="1200" height="630" fill="url(#og-bg)"/>
  <circle cx="1050" cy="120" r="180" fill="#2563EB" opacity="0.08"/>
  <circle cx="150" cy="520" r="140" fill="#3B82F6" opacity="0.1"/>
  <rect x="120" y="215" width="120" height="120" rx="32" fill="url(#og-icon)"/>
  <path fill="#fff" d="M156 245h29.4c10.8 0 17.1 5.4 17.1 13.8 0 5.7-3 9.9-8.4 12 6.3 1.8 10.5 6.9 10.5 14.4 0 10.2-7.8 16.8-20.4 16.8H156V245zm12 18.6h16.2c4.2 0 6.6-2.4 6.6-5.7s-2.4-5.7-6.6-5.7h-16.2v11.4zm0 22.2h18c4.8 0 7.8-2.7 7.8-6.9s-3-6.9-7.8-6.9h-18v13.8z"/>
  <circle cx="219" cy="312" r="9" fill="#93C5FD"/>
  <text x="270" y="295" fill="#F8FAFC" font-family="Inter, system-ui, sans-serif" font-size="72" font-weight="700" letter-spacing="-0.03em">Bold</text>
  <text x="270" y="355" fill="#94A3B8" font-family="Inter, system-ui, sans-serif" font-size="32" font-weight="500">Meet Better  Professional video meetings in your browser</text>
</svg>
